# xmcd
#
# Track frame offsets:
#	150
#	23792
#	37533
#	54745
#	71636
#	91758
#	110059
#	128804
#	150237
#	165814
#	181456
#
# Disc length: 2616 seconds
#
# Revision: 0
# Processed by: cddbd v1.5.2PL0 Copyright (c) Steve Scherf et al.
# Submitted via: EasyCDDAExtractor 11.1.0.1
#
DISCID=7b0a360b
DTITLE=Grzane wino - Bieszczady Edycja specjalna
DYEAR=2018
DGENRE=Acoustic
TTITLE0=Bieszczady
TTITLE1=Ej, dziewczyno
TTITLE2=Przerwa
TTITLE3=Teatr
TTITLE4=Ballada parkowa
TTITLE5=Twoje miasto
TTITLE6=Dlaczego
TTITLE7=Gdybyś była moja
TTITLE8=Blues o rozstaniu
TTITLE9=Boskie góry
TTITLE10=Zielona huśtawka
EXTD=
EXTT0=
EXTT1=
EXTT2=
EXTT3=
EXTT4=
EXTT5=
EXTT6=
EXTT7=
EXTT8=
EXTT9=
EXTT10=
PLAYORDER=
